<?xml version="1.0" standalone="no"?><!DOCTYPE svg PUBLIC "-//W3C//DTD SVG 1.1//EN" "http://www.w3.org/Graphics/SVG/1.1/DTD/svg11.dtd"><svg t="1522053487290" class="icon" style="" viewBox="0 0 1024 1024" version="1.1" xmlns="http://www.w3.org/2000/svg" p-id="11586" xmlns:xlink="http://www.w3.org/1999/xlink" width="64" height="64"><defs><style type="text/css"></style></defs><path d="M886.639 901.593c-10.545-91.274-54.187-175.479-122.885-237.104-37.857-33.96-82.014-59.752-129.74-76.063 23.159-12.223 44.527-27.939 63.238-46.651 49.483-49.482 76.735-115.272 76.735-185.252 0-69.977-27.251-135.768-76.734-185.252C647.771 121.787 581.98 94.536 512 94.536c-69.978 0-135.768 27.251-185.252 76.734-49.483 49.482-76.735 115.273-76.735 185.253 0 69.98 27.252 135.77 76.735 185.253 18.712 18.712 40.08 34.428 63.235 46.65-47.725 16.311-91.881 42.104-129.738 76.064-68.699 61.627-112.339 145.832-122.884 237.104-1.584 13.716 8.25 26.119 21.966 27.704 13.708 1.577 26.119-8.25 27.704-21.966 9.142-79.132 47-152.156 106.602-205.623 44.605-40.013 99.278-66.973 158.109-77.965 16.716-3.123 33.885-4.927 51.257-5.409 2.987 0.1 5.986 0.167 8.96 0.167 3.206 0 6.408-0.062 9.605-0.177 0.428 0.011 0.855 0.017 1.283 0.03 16.3 0.496 32.925 2.31 49.411 5.39 58.83 10.992 113.504 37.952 158.108 77.963 59.601 53.465 97.459 126.49 106.602 205.624 1.473 12.741 12.28 22.134 24.804 22.133 0.958 0 1.926-0.055 2.9-0.167C878.389 927.712 888.223 915.309 886.639 901.593zM300.013 356.523c0-56.624 22.05-109.858 62.09-149.897 40.04-40.039 93.273-62.09 149.897-62.09s109.858 22.05 149.897 62.09c40.039 40.04 62.09 93.273 62.09 149.897s-22.05 109.858-62.09 149.897c-26.141 26.141-57.909 44.609-92.571 54.284-15.719 4.38-31.93 6.907-48.223 7.597-6.024-0.133-12.038-0.132-18.034 0.012-0.213-0.009-0.426-0.012-0.639-0.021-16.135-0.712-32.196-3.246-47.755-7.588-34.661-9.674-66.43-28.142-92.571-54.284C322.064 466.381 300.013 413.146 300.013 356.523z" p-id="11587" fill="#576373"></path></svg>